<?xml version="1.0" encoding="utf-8"?>
<svg version="1.1" xmlns:xlink="http://www.w3.org/1999/xlink" width="14px" height="14px" xmlns="http://www.w3.org/2000/svg">
  <g transform="matrix(1 0 0 1 -17 -63 )">
    <path d="M 12.8928571428571 13.7142857142857  L 13.725 12.8821428571429  L 9.67857142857143 8.83214285714286  C 10.4214285714286 7.90357142857142  10.8678571428571 6.72142857142858  10.8678571428571 5.43571428571428  C 10.8678571428571 2.43214285714286  8.43571428571428 0  5.43928571428572 0  C 2.43928571428572 0  0.0107142857142861 2.43571428571428  0.0107142857142861 5.43571428571428  C 0.0107142857142861 8.43571428571428  2.44285714285714 10.8714285714286  5.43928571428572 10.8714285714286  C 6.73214285714285 10.8714285714286  7.91785714285715 10.4178571428571  8.85000000000001 9.66428571428571  L 12.8928571428571 13.7142857142857  Z M 5.43928571428572 10.3  C 4.14285714285714 10.3035714285714  2.92142857142857 9.79642857142858  2.00357142857142 8.87857142857143  C 1.08571428571429 7.96071428571429  0.582142857142863 6.73928571428571  0.582142857142863 5.43928571428572  C 0.582142857142863 4.13928571428572  1.08928571428571 2.91785714285714  2.00357142857142 2  C 2.91785714285714 1.08214285714286  4.14285714285714 0.571428571428569  5.43928571428572 0.571428571428569  C 6.73571428571429 0.571428571428569  7.95714285714286 1.07857142857142  8.87499999999999 1.99642857142857  C 9.79285714285714 2.91428571428571  10.2964285714286 4.13571428571429  10.2964285714286 5.43571428571428  C 10.2964285714286 6.73571428571428  9.78928571428572 7.95714285714286  8.87499999999999 8.875  C 7.95714285714286 9.79285714285714  6.73571428571429 10.3  5.43928571428572 10.3  Z " fill-rule="nonzero" fill="#4a4f5c" stroke="none" transform="matrix(1 0 0 1 17 63 )" />
  </g>
</svg>