<?xml version="1.0" encoding="utf-8"?>
<svg version="1.1" xmlns:xlink="http://www.w3.org/1999/xlink" width="9px" height="16px" xmlns="http://www.w3.org/2000/svg">
  <g transform="matrix(1 0 0 1 -7 -28 )">
    <path d="M 8.84536082474227 0.961923847695402  C 8.94845360824743 1.0688042752171  9 1.19171676686707  9 1.33066132264528  C 9 1.46960587842352  8.94845360824743 1.59251837007349  8.84536082474227 1.69939879759519  L 2.7680412371134 8  L 8.84536082474227 14.3006012024048  C 8.94845360824743 14.4074816299265  9 14.5303941215765  9 14.6693386773547  C 9 14.8082832331329  8.94845360824743 14.9311957247829  8.84536082474227 15.0380761523046  L 8.0721649484536 15.8396793587174  C 7.96907216494846 15.9465597862391  7.85051546391752 16  7.71649484536083 16  C 7.58247422680412 16  7.4639175257732 15.9465597862391  7.36082474226804 15.8396793587174  L 0.154639175257735 8.36873747494991  C 0.0515463917525807 8.26185704742818  0 8.13894455577821  0 8  C 0 7.86105544422179  0.0515463917525807 7.73814295257182  0.154639175257735 7.63126252505009  L 7.36082474226804 0.160320641282567  C 7.4639175257732 0.0534402137608652  7.58247422680412 0  7.71649484536083 0  C 7.85051546391752 0  7.96907216494846 0.0534402137608652  8.0721649484536 0.160320641282567  L 8.84536082474227 0.961923847695402  Z " fill-rule="nonzero" fill="#000000" stroke="none" transform="matrix(1 0 0 1 7 28 )" />
  </g>
</svg>