<?xml version="1.0" encoding="utf-8"?>
<svg version="1.1" xmlns:xlink="http://www.w3.org/1999/xlink" width="15px" height="15px" xmlns="http://www.w3.org/2000/svg">
  <g transform="matrix(1 0 0 1 -308 -28 )">
    <path d="M 315.5 28  C 319.7 28  323 31.3  323 35.5  C 323 39.7  319.7 43  315.5 43  C 311.3 43  308 39.7  308 35.5  C 308 31.3  311.3 28  315.5 28  Z " fill-rule="nonzero" fill="#ffffff" stroke="none" />
    <path d="M 315.5 28.5  C 319.42 28.5  322.5 31.58  322.5 35.5  C 322.5 39.42  319.42 42.5  315.5 42.5  C 311.58 42.5  308.5 39.42  308.5 35.5  C 308.5 31.58  311.58 28.5  315.5 28.5  Z " stroke-width="1" stroke="#797979" fill="none" />
  </g>
</svg>