<?xml version="1.0" encoding="utf-8"?>
<svg version="1.1" xmlns:xlink="http://www.w3.org/1999/xlink" width="27px" height="27px" xmlns="http://www.w3.org/2000/svg">
  <g transform="matrix(1 0 0 1 -52 -38 )">
    <path d="M 65.5 38  C 73.06 38  79 43.94  79 51.5  C 79 59.06  73.06 65  65.5 65  C 57.94 65  52 59.06  52 51.5  C 52 43.94  57.94 38  65.5 38  Z " fill-rule="nonzero" fill="#d7d7d7" stroke="none" />
    <path d="M 65.5 38.5  C 72.78 38.5  78.5 44.22  78.5 51.5  C 78.5 58.78  72.78 64.5  65.5 64.5  C 58.22 64.5  52.5 58.78  52.5 51.5  C 52.5 44.22  58.22 38.5  65.5 38.5  Z " stroke-width="1" stroke="#ffffff" fill="none" />
  </g>
</svg>