<?xml version="1.0" encoding="utf-8"?>
<svg version="1.1" xmlns:xlink="http://www.w3.org/1999/xlink" width="12px" height="12px" viewBox="97 174.5  12 12" xmlns="http://www.w3.org/2000/svg">
  <path d="M 103 174.5  C 106.36 174.5  109 177.14  109 180.5  C 109 183.86  106.36 186.5  103 186.5  C 99.64 186.5  97 183.86  97 180.5  C 97 177.14  99.64 174.5  103 174.5  Z " fill-rule="nonzero" fill="#ffffff" stroke="none" />
  <path d="M 103 175  C 106.08 175  108.5 177.42  108.5 180.5  C 108.5 183.58  106.08 186  103 186  C 99.92 186  97.5 183.58  97.5 180.5  C 97.5 177.42  99.92 175  103 175  Z " stroke-width="1" stroke="#797979" fill="none" />
  <path d="M 103 183.5  C 101.32 183.5  100 182.18  100 180.5  C 100 178.82  101.32 177.5  103 177.5  C 104.68 177.5  106 178.82  106 180.5  C 106 182.18  104.68 183.5  103 183.5  " fill-rule="nonzero" fill="#797979" stroke="none" />
</svg>