<?xml version="1.0" encoding="utf-8"?>
<svg version="1.1" xmlns:xlink="http://www.w3.org/1999/xlink" width="12px" height="12px" viewBox="177 174.5  12 12" xmlns="http://www.w3.org/2000/svg">
  <path d="M 183 174.5  C 186.36 174.5  189 177.14  189 180.5  C 189 183.86  186.36 186.5  183 186.5  C 179.64 186.5  177 183.86  177 180.5  C 177 177.14  179.64 174.5  183 174.5  Z " fill-rule="nonzero" fill="#ffffff" stroke="none" />
  <path d="M 183 175  C 186.08 175  188.5 177.42  188.5 180.5  C 188.5 183.58  186.08 186  183 186  C 179.92 186  177.5 183.58  177.5 180.5  C 177.5 177.42  179.92 175  183 175  Z " stroke-width="1" stroke="#797979" fill="none" />
  <path d="M 183 183.5  C 181.32 183.5  180 182.18  180 180.5  C 180 178.82  181.32 177.5  183 177.5  C 184.68 177.5  186 178.82  186 180.5  C 186 182.18  184.68 183.5  183 183.5  " fill-rule="nonzero" fill="#797979" stroke="none" />
</svg>