<?xml version="1.0" encoding="utf-8"?>
<svg version="1.1" xmlns:xlink="http://www.w3.org/1999/xlink" width="12px" height="12px" viewBox="97 283.5  12 12" xmlns="http://www.w3.org/2000/svg">
  <path d="M 103 283.5  C 106.36 283.5  109 286.14  109 289.5  C 109 292.86  106.36 295.5  103 295.5  C 99.64 295.5  97 292.86  97 289.5  C 97 286.14  99.64 283.5  103 283.5  Z " fill-rule="nonzero" fill="#ffffff" stroke="none" />
  <path d="M 103 284  C 106.08 284  108.5 286.42  108.5 289.5  C 108.5 292.58  106.08 295  103 295  C 99.92 295  97.5 292.58  97.5 289.5  C 97.5 286.42  99.92 284  103 284  Z " stroke-width="1" stroke="#797979" fill="none" />
  <path d="M 103 292.5  C 101.32 292.5  100 291.18  100 289.5  C 100 287.82  101.32 286.5  103 286.5  C 104.68 286.5  106 287.82  106 289.5  C 106 291.18  104.68 292.5  103 292.5  " fill-rule="nonzero" fill="#797979" stroke="none" />
</svg>