<?xml version="1.0" encoding="utf-8"?>
<svg version="1.1" xmlns:xlink="http://www.w3.org/1999/xlink" width="12px" height="12px" viewBox="177 283.5  12 12" xmlns="http://www.w3.org/2000/svg">
  <path d="M 183 283.5  C 186.36 283.5  189 286.14  189 289.5  C 189 292.86  186.36 295.5  183 295.5  C 179.64 295.5  177 292.86  177 289.5  C 177 286.14  179.64 283.5  183 283.5  Z " fill-rule="nonzero" fill="#ffffff" stroke="none" />
  <path d="M 183 284  C 186.08 284  188.5 286.42  188.5 289.5  C 188.5 292.58  186.08 295  183 295  C 179.92 295  177.5 292.58  177.5 289.5  C 177.5 286.42  179.92 284  183 284  Z " stroke-width="1" stroke="#797979" fill="none" />
  <path d="M 183 292.5  C 181.32 292.5  180 291.18  180 289.5  C 180 287.82  181.32 286.5  183 286.5  C 184.68 286.5  186 287.82  186 289.5  C 186 291.18  184.68 292.5  183 292.5  " fill-rule="nonzero" fill="#797979" stroke="none" />
</svg>