<?xml version="1.0" encoding="utf-8"?>
<svg version="1.1" xmlns:xlink="http://www.w3.org/1999/xlink" width="12px" height="12px" viewBox="177 136.5  12 12" xmlns="http://www.w3.org/2000/svg">
  <path d="M 183 136.5  C 186.36 136.5  189 139.14  189 142.5  C 189 145.86  186.36 148.5  183 148.5  C 179.64 148.5  177 145.86  177 142.5  C 177 139.14  179.64 136.5  183 136.5  Z " fill-rule="nonzero" fill="#ffffff" stroke="none" />
  <path d="M 183 137  C 186.08 137  188.5 139.42  188.5 142.5  C 188.5 145.58  186.08 148  183 148  C 179.92 148  177.5 145.58  177.5 142.5  C 177.5 139.42  179.92 137  183 137  Z " stroke-width="1" stroke="#797979" fill="none" />
  <path d="M 183 145.5  C 181.32 145.5  180 144.18  180 142.5  C 180 140.82  181.32 139.5  183 139.5  C 184.68 139.5  186 140.82  186 142.5  C 186 144.18  184.68 145.5  183 145.5  " fill-rule="nonzero" fill="#797979" stroke="none" />
</svg>