<?xml version="1.0" encoding="utf-8"?>
<svg version="1.1" xmlns:xlink="http://www.w3.org/1999/xlink" width="12px" height="12px" viewBox="177 254.5  12 12" xmlns="http://www.w3.org/2000/svg">
  <path d="M 183 254.5  C 186.36 254.5  189 257.14  189 260.5  C 189 263.86  186.36 266.5  183 266.5  C 179.64 266.5  177 263.86  177 260.5  C 177 257.14  179.64 254.5  183 254.5  Z " fill-rule="nonzero" fill="#ffffff" stroke="none" />
  <path d="M 183 255  C 186.08 255  188.5 257.42  188.5 260.5  C 188.5 263.58  186.08 266  183 266  C 179.92 266  177.5 263.58  177.5 260.5  C 177.5 257.42  179.92 255  183 255  Z " stroke-width="1" stroke="#797979" fill="none" />
  <path d="M 183 263.5  C 181.32 263.5  180 262.18  180 260.5  C 180 258.82  181.32 257.5  183 257.5  C 184.68 257.5  186 258.82  186 260.5  C 186 262.18  184.68 263.5  183 263.5  " fill-rule="nonzero" fill="#797979" stroke="none" />
</svg>