<?xml version="1.0" encoding="utf-8"?>
<svg version="1.1" xmlns:xlink="http://www.w3.org/1999/xlink" width="19px" height="12px" xmlns="http://www.w3.org/2000/svg">
  <g transform="matrix(1 0 0 1 -336 -176 )">
    <path d="M 19 2.66086956521739  C 19 2.86570048309179  18.9253515301902 3.04154589371981  18.7760545905707 3.18840579710145  L 10.0303970223325 11.7797101449275  C 9.88110008271299 11.9265700483092  9.70430107526882 12  9.5 12  C 9.29569892473118 12  9.11889991728702 11.9265700483092  8.96960297766749 11.7797101449275  L 0.22394540942928 3.18840579710145  C 0.0746484698097602 3.04154589371981  0 2.86570048309179  0 2.66086956521739  C 0 2.45603864734299  0.0746484698097602 2.28019323671498  0.22394540942928 2.13333333333333  L 2.18052109181141 0.220289855072464  C 2.32981803143093 0.0734299516908208  2.5066170388751 0  2.71091811414392 0  C 2.91521918941274 0  3.09201819685691 0.0734299516908208  3.24131513647643 0.220289855072464  L 9.5 6.3768115942029  L 15.7586848635236 0.220289855072464  C 15.9079818031431 0.0734299516908208  16.0847808105873 0  16.2890818858561 0  C 16.4933829611249 0  16.6701819685691 0.0734299516908208  16.8194789081886 0.220289855072464  L 18.7760545905707 2.13333333333333  C 18.9253515301902 2.28019323671498  19 2.45603864734299  19 2.66086956521739  Z " fill-rule="nonzero" fill="#000000" stroke="none" transform="matrix(1 0 0 1 336 176 )" />
  </g>
</svg>