<?xml version="1.0" encoding="utf-8"?>
<svg version="1.1" xmlns:xlink="http://www.w3.org/1999/xlink" width="6px" height="8px" xmlns="http://www.w3.org/2000/svg">
  <g transform="matrix(1 0 0 1 -348 -77 )">
    <path d="M 5.80208333333326 3.6484375  C 5.93402777777771 3.74739583333333  6 3.86458333333333  6 4  C 6 4.13541666666667  5.93402777777771 4.25260416666667  5.80208333333326 4.3515625  L 1.13541666666674 7.8515625  C 1.00347222222229 7.95052083333333  0.847222222222285 8  0.666666666666742 8  C 0.4861111111112 8  0.329861111111086 7.95052083333333  0.197916666666742 7.8515625  C 0.0659722222222854 7.75260416666667  0 7.63541666666667  0 7.5  L 0 0.5  C 0 0.364583333333329  0.0659722222222854 0.247395833333329  0.197916666666742 0.1484375  C 0.329861111111086 0.0494791666666714  0.4861111111112 0  0.666666666666742 0  C 0.847222222222285 0  1.00347222222229 0.0494791666666714  1.13541666666674 0.1484375  L 5.80208333333326 3.6484375  Z " fill-rule="nonzero" fill="#000000" stroke="none" transform="matrix(1 0 0 1 348 77 )" />
  </g>
</svg>