<?xml version="1.0" encoding="utf-8"?>
<svg version="1.1" xmlns:xlink="http://www.w3.org/1999/xlink" width="332px" height="100px" xmlns="http://www.w3.org/2000/svg">
  <defs>
    <mask fill="white" id="clip51">
      <path d="M 32 491  C 26.45 491  22 486.55  22 481  L 22 401  C 22 395.45  26.45 391  32 391  L 344 391  C 349.55 391  354 395.45  354 401  L 354 481  C 354 486.55  349.55 491  344 491  " fill-rule="evenodd" />
    </mask>
  </defs>
  <g transform="matrix(1 0 0 1 -22 -391 )">
    <path d="M 22 391  L 354 391  L 354 491  L 22 491  L 22 391  " fill-rule="nonzero" fill="#cccccc" stroke="none" mask="url(#clip51)" />
    <path d="M 29 398  L 347 398  L 347 484  L 29 484  L 29 398  " fill-rule="nonzero" fill="#ffffff" stroke="none" mask="url(#clip51)" />
    <path d="M 202.14 421  C 197.94 421  194.64 417.7  194.64 413.5  C 194.64 409.3  197.94 406  202.14 406  C 206.34 406  209.64 409.3  209.64 413.5  C 209.64 417.7  206.34 421  202.14 421  " fill-rule="nonzero" fill="#cccccc" stroke="none" mask="url(#clip51)" />
    <path d="M 32 482  L 32 437.45  L 110.25 417.2  L 219.8 467.361445783133  L 282.4 429.35  L 345 467.361445783133  L 345 482  L 32 482  " fill-rule="nonzero" fill="#169bd5" stroke="none" mask="url(#clip51)" />
  </g>
</svg>