<?xml version="1.0" encoding="utf-8"?>
<svg version="1.1" xmlns:xlink="http://www.w3.org/1999/xlink" width="18px" height="18px" xmlns="http://www.w3.org/2000/svg">
  <g transform="matrix(1 0 0 1 -89 -42 )">
    <path d="M 16.5765306122449 17.6326530612245  L 17.6464285714286 16.5627551020408  L 12.4438775510204 11.355612244898  C 13.3989795918367 10.1617346938775  13.9729591836735 8.64183673469388  13.9729591836735 6.98877551020408  C 13.9729591836735 3.12704081632653  10.8459183673469 0  6.99336734693878 0  C 3.13622448979592 0  0.0137755102040842 3.13163265306122  0.0137755102040842 6.98877551020408  C 0.0137755102040842 10.8459183673469  3.14081632653061 13.9775510204082  6.99336734693878 13.9775510204082  C 8.65561224489795 13.9775510204082  10.1801020408163 13.394387755102  11.3785714285714 12.4255102040816  L 16.5765306122449 17.6326530612245  Z M 6.99336734693878 13.2428571428571  C 5.32653061224489 13.2474489795918  3.7561224489796 12.5954081632653  2.57602040816326 11.415306122449  C 1.39591836734694 10.2352040816327  0.748469387755108 8.66479591836735  0.748469387755108 6.99336734693878  C 0.748469387755108 5.3219387755102  1.40051020408163 3.7515306122449  2.57602040816326 2.57142857142857  C 3.75153061224489 1.39132653061225  5.32653061224489 0.734693877551024  6.99336734693878 0.734693877551024  C 8.66020408163266 0.734693877551024  10.230612244898 1.38673469387755  11.4107142857143 2.56683673469388  C 12.5908163265306 3.7469387755102  13.2382653061225 5.31734693877551  13.2382653061225 6.98877551020408  C 13.2382653061225 8.66020408163265  12.5862244897959 10.230612244898  11.4107142857143 11.4107142857143  C 10.230612244898 12.5908163265306  8.66020408163266 13.2428571428571  6.99336734693878 13.2428571428571  Z " fill-rule="nonzero" fill="#4a4f5c" stroke="none" transform="matrix(1 0 0 1 89 42 )" />
  </g>
</svg>