<?xml version="1.0" encoding="utf-8"?>
<svg version="1.1" xmlns:xlink="http://www.w3.org/1999/xlink" width="25px" height="20px" xmlns="http://www.w3.org/2000/svg">
  <g transform="matrix(1 0 0 1 -287 -154 )">
    <path d="M 2.08333333333333 0  L 22.9166666666667 0  C 23.4895833333333 0  23.9800347222222 0.203993055555554  24.3880208333333 0.611979166666667  C 24.7960069444444 1.01996527777778  25 1.51041666666667  25 2.08333333333333  L 25 17.9166666666667  C 25 18.4895833333333  24.7960069444444 18.9800347222222  24.3880208333333 19.3880208333333  C 23.9800347222222 19.7960069444444  23.4895833333333 20  22.9166666666667 20  L 2.08333333333333 20  C 1.51041666666667 20  1.01996527777778 19.7960069444444  0.611979166666667 19.3880208333333  C 0.203993055555556 18.9800347222222  0 18.4895833333333  0 17.9166666666667  L 0 2.08333333333333  C 0 1.51041666666667  0.203993055555556 1.01996527777778  0.611979166666667 0.611979166666667  C 1.01996527777778 0.203993055555554  1.51041666666667 0  2.08333333333333 0  Z M 22.9166666666667 2  L 2.08333333333333 2  C 1.97048611111111 1.66666666666667  1.87282986111111 1.70789930555555  1.79036458333333 1.79036458333333  C 1.70789930555556 1.87282986111111  1.66666666666667 1.97048611111111  1.66666666666667 2.08333333333333  L 1.66666666666667 5  L 23.3333333333333 5  L 23.3333333333333 2.08333333333333  C 23.3333333333333 1.97048611111111  23.2921006944444 1.87282986111111  23.2096354166667 1.79036458333333  C 23.1271701388889 1.70789930555555  23.0295138888889 1.66666666666667  22.9166666666667 2  Z M 2.08333333333333 18  L 22.9166666666667 18  C 23.0295138888889 18.3333333333333  23.1271701388889 18.2921006944444  23.2096354166667 18.2096354166667  C 23.2921006944444 18.1271701388889  23.3333333333333 18.0295138888889  23.3333333333333 17.9166666666667  L 23.3333333333333 10  L 1.66666666666667 10  L 1.66666666666667 17.9166666666667  C 1.66666666666667 18.0295138888889  1.70789930555556 18.1271701388889  1.79036458333333 18.2096354166667  C 1.87282986111111 18.2921006944444  1.97048611111111 18.3333333333333  2.08333333333333 18  Z M 6.66666666666667 16.6666666666667  L 3.33333333333333 16.6666666666667  L 3.33333333333333 15  L 6.66666666666667 15  L 6.66666666666667 16.6666666666667  Z M 13.3333333333333 16.6666666666667  L 8.33333333333333 16.6666666666667  L 8.33333333333333 15  L 13.3333333333333 15  L 13.3333333333333 16.6666666666667  Z " fill-rule="nonzero" fill="#02a7f0" stroke="none" transform="matrix(1 0 0 1 287 154 )" />
  </g>
</svg>