<?xml version="1.0" encoding="utf-8"?>
<svg version="1.1" xmlns:xlink="http://www.w3.org/1999/xlink" width="351px" height="107px" xmlns="http://www.w3.org/2000/svg">
  <g transform="matrix(1 0 0 1 -12 -62 )">
    <path d="M 13 66  A 3 3 0 0 1 16 63 L 359 63  A 3 3 0 0 1 362 66 L 362 165  A 3 3 0 0 1 359 168 L 16 168  A 3 3 0 0 1 13 165 L 13 66  Z " fill-rule="nonzero" fill="#ffffff" stroke="none" />
    <path d="M 12.5 66  A 3.5 3.5 0 0 1 16 62.5 L 359 62.5  A 3.5 3.5 0 0 1 362.5 66 L 362.5 165  A 3.5 3.5 0 0 1 359 168.5 L 16 168.5  A 3.5 3.5 0 0 1 12.5 165 L 12.5 66  Z " stroke-width="1" stroke="#797979" fill="none" stroke-opacity="0.2" />
  </g>
</svg>