<?xml version="1.0" encoding="utf-8"?>
<svg version="1.1" xmlns:xlink="http://www.w3.org/1999/xlink" width="56px" height="59px" xmlns="http://www.w3.org/2000/svg">
  <defs>
    <mask fill="white" id="clip33">
      <path d="M 55 235  C 52.78 235  51 233.22  51 231  L 51 180  C 51 177.78  52.78 176  55 176  L 103 176  C 105.22 176  107 177.78  107 180  L 107 231  C 107 233.22  105.22 235  103 235  " fill-rule="evenodd" />
    </mask>
  </defs>
  <g transform="matrix(1 0 0 1 -51 -176 )">
    <path d="M 51 176  L 107 176  L 107 235  L 51 235  L 51 176  " fill-rule="nonzero" fill="#cccccc" stroke="none" mask="url(#clip33)" />
    <path d="M 55 180  L 103 180  L 103 231  L 55 231  L 55 180  " fill-rule="nonzero" fill="#ffffff" stroke="none" mask="url(#clip33)" />
    <path d="M 84.32 193.25  C 81.968 193.25  80.12 191.402  80.12 189.05  C 80.12 186.698  81.968 184.85  84.32 184.85  C 86.672 184.85  88.52 186.698  88.52 189.05  C 88.52 191.402  86.672 193.25  84.32 193.25  " fill-rule="nonzero" fill="#cccccc" stroke="none" mask="url(#clip33)" />
    <path d="M 57 230  L 57 203.6  L 68.25 191.6  L 84 201.2  L 93 198.8  L 102 201.2  L 102 230  L 57 230  " fill-rule="nonzero" fill="#169bd5" stroke="none" mask="url(#clip33)" />
  </g>
</svg>