<?xml version="1.0" encoding="utf-8"?>
<svg version="1.1" xmlns:xlink="http://www.w3.org/1999/xlink" width="70px" height="70px" xmlns="http://www.w3.org/2000/svg">
  <g transform="matrix(1 0 0 1 -13 -19 )">
    <path d="M 48 19  C 67.6 19  83 34.4  83 54  C 83 73.6  67.6 89  48 89  C 28.4 89  13 73.6  13 54  C 13 34.4  28.4 19  48 19  Z " fill-rule="nonzero" fill="#7a7a7a" stroke="none" />
    <path d="M 48 19.5  C 67.32 19.5  82.5 34.68  82.5 54  C 82.5 73.32  67.32 88.5  48 88.5  C 28.68 88.5  13.5 73.32  13.5 54  C 13.5 34.68  28.68 19.5  48 19.5  Z " stroke-width="1" stroke="#ffffff" fill="none" />
  </g>
</svg>