<?xml version="1.0" encoding="utf-8"?>
<svg version="1.1" xmlns:xlink="http://www.w3.org/1999/xlink" width="60px" height="60px" xmlns="http://www.w3.org/2000/svg">
  <g transform="matrix(1 0 0 1 -18 -24 )">
    <path d="M 48 24  C 64.8 24  78 37.2  78 54  C 78 70.8  64.8 84  48 84  C 31.2 84  18 70.8  18 54  C 18 37.2  31.2 24  48 24  Z " fill-rule="nonzero" fill="#7a7a7a" stroke="none" />
    <path d="M 48 24.5  C 64.52 24.5  77.5 37.48  77.5 54  C 77.5 70.52  64.52 83.5  48 83.5  C 31.48 83.5  18.5 70.52  18.5 54  C 18.5 37.48  31.48 24.5  48 24.5  Z " stroke-width="1" stroke="#ffffff" fill="none" />
  </g>
</svg>