<?xml version="1.0" encoding="utf-8"?>
<svg version="1.1" xmlns:xlink="http://www.w3.org/1999/xlink" width="9px" height="5px" xmlns="http://www.w3.org/2000/svg">
  <g transform="matrix(1 0 0 1 -129 -93 )">
    <path d="M 0.1669921875 0.164930555555543  C 0.0556640625000003 0.274884259259238  0 0.40509259259261  0 0.555555555555543  C 0 0.706018518518533  0.0556640625000003 0.836226851851848  0.1669921875 0.946180555555543  L 4.1044921875 4.83506944444446  C 4.2158203125 4.94502314814815  4.34765625 5  4.5 5  C 4.65234375 5  4.7841796875 4.94502314814815  4.8955078125 4.83506944444446  L 8.8330078125 0.946180555555543  C 8.9443359375 0.836226851851848  9 0.706018518518533  9 0.555555555555543  C 9 0.40509259259261  8.9443359375 0.274884259259238  8.8330078125 0.164930555555543  C 8.7216796875 0.0549768518518479  8.58984375 0  8.4375 0  L 0.5625 0  C 0.41015625 0  0.2783203125 0.0549768518518479  0.1669921875 0.164930555555543  Z " fill-rule="nonzero" fill="#000000" stroke="none" transform="matrix(1 0 0 1 129 93 )" />
  </g>
</svg>